HIERARCHY
ROOT Hips
{
  OFFSET 48.1151 93.7009 3.97774
  CHANNELS 6 Xposition Yposition Zposition Zrotation Xrotation Yrotation
  JOINT spine
  {
    OFFSET 0 7.80059 0.448573
    CHANNELS 3 Zrotation Xrotation Yrotation
    JOINT spine1
    {
      OFFSET 0 10.1364 0
      CHANNELS 3 Zrotation Xrotation Yrotation
      JOINT spine2
      {
        OFFSET 0 9.71251 0
        CHANNELS 3 Zrotation Xrotation Yrotation
        JOINT Neck
        {
          OFFSET 0 24.9361 1.18887
          CHANNELS 3 Zrotation Xrotation Yrotation
          JOINT Head
          {
            OFFSET 0 7.53384 0
            CHANNELS 3 Zrotation Xrotation Yrotation
            End Site
            {
              OFFSET 0 18.2361 -6.01402
            }
          }
        }
        JOINT RightShoulder
        {
          OFFSET -4.08965 10.4888 -0.569457
          CHANNELS 3 Zrotation Xrotation Yrotation
          JOINT RightArm
          {
            OFFSET 0 13.757 0
            CHANNELS 3 Zrotation Xrotation Yrotation
            JOINT RightArmRoll
            {
              OFFSET 0 6.94478 0
              CHANNELS 3 Zrotation Xrotation Yrotation
              JOINT RightForeArm
              {
                OFFSET 0 20.2277 0
                CHANNELS 3 Zrotation Xrotation Yrotation
                JOINT RightForeArmRoll
                {
                  OFFSET 0 7.79312 0
                  CHANNELS 3 Zrotation Xrotation Yrotation
                  JOINT RightHand
                  {
                    OFFSET 0 15.6391 0
                    CHANNELS 3 Zrotation Xrotation Yrotation
                    End Site
                    {
                      OFFSET 0 0 0
                    }
                  }
                }
              }
            }
          }
        }
        JOINT LeftShoulder
        {
          OFFSET 4.08965 10.4888 -0.569457
          CHANNELS 3 Zrotation Xrotation Yrotation
          JOINT LeftArm
          {
            OFFSET 0 13.757 0
            CHANNELS 3 Zrotation Xrotation Yrotation
            JOINT LeftArmRoll
            {
              OFFSET 0 6.94478 0
              CHANNELS 3 Zrotation Xrotation Yrotation
              JOINT LeftForeArm
              {
                OFFSET 0 20.2277 0
                CHANNELS 3 Zrotation Xrotation Yrotation
                JOINT LeftForeArmRoll
                {
                  OFFSET 0 7.79312 0
                  CHANNELS 3 Zrotation Xrotation Yrotation
                  JOINT LeftHand
                  {
                    OFFSET 0 15.6391 0
                    CHANNELS 3 Zrotation Xrotation Yrotation
                    End Site
                    {
                      OFFSET 0 0 0
                    }
                  }
                }
              }
            }
          }
        }
      }
    }
  }
  JOINT RightUpLeg
  {
    OFFSET -6.91416 -1.26788 -1.06358
    CHANNELS 3 Zrotation Xrotation Yrotation
    JOINT RightUpLegRoll
    {
      OFFSET 0 18.3378 0
      CHANNELS 3 Zrotation Xrotation Yrotation
      JOINT RightLeg
      {
        OFFSET 0 -22.7085 0
        CHANNELS 3 Zrotation Xrotation Yrotation
        JOINT RightLegRoll
        {
          OFFSET 0 22.7828 0
          CHANNELS 3 Zrotation Xrotation Yrotation
          JOINT RightFoot
          {
            OFFSET 0 18.9629 0
            CHANNELS 3 Zrotation Xrotation Yrotation
            JOINT RightToeBase
            {
              OFFSET 0 15.852 0
              CHANNELS 3 Zrotation Xrotation Yrotation
              End Site
              {
                OFFSET 0.00671906 7.677 -0.884893
              }
            }
          }
        }
      }
    }
  }
  JOINT LeftUpLeg
  {
    OFFSET 6.91416 -1.26788 -1.06358
    CHANNELS 3 Zrotation Xrotation Yrotation
    JOINT LeftUpLegRoll
    {
      OFFSET 0 18.3379 0
      CHANNELS 3 Zrotation Xrotation Yrotation
      JOINT LeftLeg
      {
        OFFSET 0 22.7084 0
        CHANNELS 3 Zrotation Xrotation Yrotation
        JOINT LeftLegRoll
        {
          OFFSET 0 22.9934 0
          CHANNELS 3 Zrotation Xrotation Yrotation
          JOINT LeftFoot
          {
            OFFSET 0 18.7522 0
            CHANNELS 3 Zrotation Xrotation Yrotation
            JOINT LeftToeBase
            {
              OFFSET 0 15.852 0
              CHANNELS 3 Zrotation Xrotation Yrotation
              End Site
              {
                OFFSET -0.030112 7.67701 -0.884892
              }
            }
          }
        }
      }
    }
  }
}
MOTION
Frames: 14
Frame Time: 0.00208333
43.076 77.2837 4.13419 0.766489 2.26081 6.84944 -0.0381248 1.36893 0.405546 -0.0904551 6.74039 0.817962 -0.10057 8.3854 0.820879 -15.6351 -12.0306 -7.96452 15.4129 -12.7486 -5.40108 62.2763 -7.33134 -4.67215 102.704 20.4884 27.2866 -2.09766e-005 -1.2729e-007 -8.7499e-007 1.75251 41.2001 -2.31696 -3.6371e-006 7.61885e-007 -3 8.02886 -4.95159 0.697758 -67.7217 -4.15299 3.21119 -103.955 10.9092 -15.2686 -1.0478e-005 1.76413e-006 4.33026e-007 -0.322607 42.8719 1.0206 1.57638e-006 2.10261e-007 3 -8.02951 -4.95156 -0.697709 -172.511 37.506 -5.34616 180 7.01343e-015 178.249 -167.717 74.506 169.082 6.61056e-007 -5.43117e-006 3.75341 -155.649 75.1449 158.22 8.13336 25.244 -3.48039 179.649 42.7377 -6.79457 4.54188e-006 -4.6773e-006 -1.97102 -4.88249 -80.7811 -2.90749 6.26103e-006 -2.59136e-006 -3.40394 106.388 82.6287 -104.205 -9.26371 39.2912 4.1892 
43.1439 77.4506 4.17727 0.803387 2.17883 6.85955 -0.0399082 1.37765 0.406298 -0.0941499 6.75783 0.819662 -0.104295 8.40284 0.822647 -15.7523 -12.0991 -7.98579 15.4895 -12.6215 -5.41956 62.0136 -7.37655 -4.6889 102.601 20.4482 27.432 -2.09766e-005 -1.2729e-007 -8.7499e-007 1.78681 41.9867 -2.35023 -3.6371e-006 7.61885e-007 -3 8.02886 -4.95159 0.697758 -67.6695 -4.18021 3.22169 -103.682 11.0415 -15.5509 -1.0478e-005 1.76413e-006 4.33026e-007 -0.21853 44.4852 0.933417 1.57638e-006 2.10261e-007 3 -8.02951 -4.95156 -0.697709 -172.622 37.3155 -5.27742 180 7.01346e-015 178.255 -167.955 74.2599 169.306 6.61056e-007 -5.43117e-006 3.72924 -155.413 75.2728 157.976 8.1334 25.2442 -3.48046 179.658 42.4186 -6.78644 4.54188e-006 -4.6773e-006 -1.96677 -5.47368 -80.3959 -3.39057 6.26103e-006 -2.59136e-006 -3.37609 107.106 82.5867 -104.817 -9.23839 39.0294 4.17296 
43.1877 77.5027 4.15876 0.836461 2.10175 6.87593 -0.0409149 1.38315 0.406603 -0.096241 6.76882 0.820311 -0.106399 8.41383 0.823335 -15.8546 -12.1513 -8.0011 15.5512 -12.4987 -5.43639 61.7625 -7.42022 -4.70547 102.471 20.3915 27.5806 -2.09766e-005 -1.2729e-007 -8.7499e-007 1.83269 42.7831 -2.38811 -3.6371e-006 7.61885e-007 -3 8.02886 -4.95159 0.697758 -67.6137 -4.20041 3.22835 -103.4 11.1722 -15.8725 -1.0478e-005 1.76413e-006 4.33027e-007 -0.0877165 46.1747 0.824182 1.57638e-006 2.10261e-007 3 -8.02951 -4.95156 -0.697709 -172.744 37.1191 -5.19486 180 7.01348e-015 178.263 -168.232 73.9941 169.563 6.61056e-007 -5.43117e-006 3.70265 -155.157 75.4068 157.709 8.13345 25.2445 -3.48056 179.662 42.0916 -6.76095 4.54188e-006 -4.6773e-006 -1.96183 -6.05495 -79.9783 -3.85971 6.26103e-006 -2.59137e-006 -3.34536 107.837 82.5413 -105.436 -9.21106 38.7459 4.15522 
43.2014 77.6966 4.18004 0.866036 2.02942 6.89853 -0.0412123 1.38558 0.406475 -0.0968656 6.77368 0.819957 -0.107021 8.41869 0.822992 -15.9433 -12.1887 -8.01145 15.5989 -12.3793 -5.45228 61.5224 -7.46278 -4.72209 102.317 20.3194 27.732 -2.09766e-005 -1.2729e-007 -8.7499e-007 1.88935 43.5877 -2.43053 -3.6371e-006 7.61885e-007 -3 8.02886 -4.95159 0.697758 -67.5541 -4.21433 3.23151 -103.11 11.3018 -16.229 -1.0478e-005 1.76413e-006 4.33027e-007 0.069598 47.9243 0.692971 1.57638e-006 2.10261e-007 3 -8.02951 -4.95156 -0.697709 -172.879 36.9169 -5.09942 180 7.01351e-015 178.27 -168.543 73.7091 169.85 6.61055e-007 -5.43117e-006 3.67373 -154.882 75.547 157.418 8.13351 25.245 -3.48067 179.663 41.7585 -6.72074 4.54188e-006 -4.6773e-006 -1.95625 -6.61844 -79.5317 -4.30774 6.26103e-006 -2.59137e-006 -3.31195 108.551 82.4939 -106.033 -9.18231 38.4458 4.13644 
43.258 77.7967 4.17465 0.892436 1.96169 6.92727 -0.0408683 1.38512 0.405927 -0.0961612 6.77277 0.81865 -0.106299 8.41779 0.82167 -16.0195 -12.2127 -8.01783 15.6338 -12.2625 -5.46797 61.2925 -7.50463 -4.73896 102.141 20.2328 27.8855 -2.09766e-005 -1.2729e-007 -8.7499e-007 1.95599 44.399 -2.47741 -3.6371e-006 7.61885e-007 -3 8.02886 -4.95159 0.697758 -67.4901 -4.22271 3.23152 -102.812 11.4303 -16.6162 -1.0478e-005 1.76413e-006 4.33026e-007 0.253174 49.7177 0.539675 1.57638e-006 2.10261e-007 3 -8.02951 -4.95156 -0.697709 -173.024 36.7091 -4.99202 180 -7.01354e-015 178.278 -168.884 73.405 170.162 6.61055e-007 -5.43117e-006 3.64258 -154.585 75.6935 157.101 8.13357 25.2455 -3.4808 179.66 41.4207 -6.66843 4.54188e-006 -4.6773e-006 -1.95007 -7.15833 -79.0592 -4.72946 6.26103e-006 -2.59137e-006 -3.2761 109.223 82.4459 -106.583 -9.1527 38.1345 4.11704 
43.2618 77.977 4.19399 0.91598 1.89841 6.96211 -0.0399508 1.38194 0.404974 -0.0942662 6.76643 0.816436 -0.104372 8.41144 0.81942 -16.0846 -12.2248 -8.02124 15.6569 -12.1474 -5.48417 61.0719 -7.54619 -4.75629 101.946 20.1327 28.0408 -2.09766e-005 -1.2729e-007 -8.7499e-007 2.03177 45.2154 -2.52866 -3.6371e-006 7.61885e-007 -3 8.02886 -4.95159 0.697758 -67.4215 -4.22629 3.22873 -102.505 11.558 -17.03 -1.0478e-005 1.76413e-006 4.33027e-007 0.462697 51.539 0.364054 1.57638e-006 2.10261e-007 3 -8.02951 -4.95156 -0.697709 -173.179 36.496 -4.87358 180 7.01357e-015 178.287 -169.251 73.082 170.495 6.61056e-007 -5.43116e-006 3.60928 -154.266 75.8463 156.758 8.13364 25.2461 -3.48094 179.657 41.0799 -6.60653 4.54188e-006 -4.6773e-006 -1.94335 -7.6705 -78.5641 -5.12135 6.26103e-006 -2.59136e-006 -3.23801 109.827 82.3988 -107.062 -9.12276 37.8172 4.09744 
43.3222 78.116 4.18862 0.936985 1.83941 7.00298 -0.0385276 1.37622 0.403627 -0.0913192 6.75498 0.813365 -0.101381 8.4 0.816292 -16.1397 -12.2265 -8.02266 15.6691 -12.0331 -5.50158 60.8599 -7.58788 -4.77428 101.734 20.0201 28.1972 -2.09766e-005 -1.2729e-007 -8.7499e-007 2.11587 46.0352 -2.5842 -3.6371e-006 7.61885e-007 -3 8.02886 -4.95159 0.697758 -67.3477 -4.22581 3.22349 -102.191 11.6851 -17.4662 -1.0478e-005 1.76413e-006 4.33026e-007 0.697692 53.372 0.165806 1.57638e-006 2.10261e-007 3 -8.02951 -4.95156 -0.697709 -173.343 36.2776 -4.74503 180 7.01361e-015 178.297 -169.64 72.7405 170.845 6.61056e-007 -5.43116e-006 3.57394 -153.924 76.0056 156.387 8.1337 25.2468 -3.48108 179.653 40.7378 -6.53754 4.54188e-006 -4.6773e-006 -1.93615 -8.15217 -78.0497 -5.48124 6.26103e-006 -2.59136e-006 -3.1979 110.337 82.3544 -107.445 -9.09302 37.4993 4.07802 
43.3637 78.3121 4.18872 0.955766 1.78455 7.04982 -0.036667 1.36811 0.401901 -0.0874595 6.73878 0.809486 -0.0974642 8.3838 0.812338 -16.186 -12.2192 -8.02311 15.6716 -11.9188 -5.52094 60.6557 -7.63011 -4.79314 101.506 19.8961 28.3544 -2.09766e-005 -1.2729e-007 -8.7499e-007 2.20745 46.8569 -2.64393 -3.6371e-006 7.61885e-007 -3 8.02886 -4.95159 0.697758 -67.2685 -4.22203 3.21615 -101.87 11.8119 -17.9203 -1.0478e-005 1.76413e-006 4.33026e-007 0.95741 55.2005 -0.0553165 1.57638e-006 2.10261e-007 3 -8.02951 -4.95156 -0.697709 -173.515 36.0543 -4.60725 180 7.01364e-015 178.306 -170.049 72.3805 171.209 6.61056e-007 -5.43115e-006 3.53664 -153.557 76.1714 155.985 8.13377 25.2475 -3.48122 179.65 40.3958 -6.46386 4.54188e-006 -4.6773e-006 -1.92851 -8.60164 -77.5192 -5.80796 6.26103e-006 -2.59136e-006 -3.15598 110.73 82.3142 -107.709 -9.06397 37.186 4.05916 
43.4112 78.4769 4.18436 0.972634 1.73367 7.10258 -0.0344369 1.35779 0.39981 -0.0828263 6.71817 0.804846 -0.092763 8.36319 0.807608 -16.225 -12.2045 -8.02358 15.6654 -11.8037 -5.54295 60.4585 -7.67329 -4.81308 101.265 19.7615 28.5119 -2.09766e-005 -1.2729e-007 -8.7499e-007 2.30562 47.6788 -2.70773 -3.6371e-006 7.61885e-007 -3 8.02886 -4.95159 0.697758 -67.1833 -4.21568 3.20705 -101.541 11.9387 -18.3884 -1.0478e-005 1.76413e-006 4.33027e-007 1.24068 57.0085 -0.29936 1.57638e-006 2.10261e-007 3 -8.02951 -4.95156 -0.697709 -173.694 35.8262 -4.46115 180 7.01368e-015 178.317 -170.474 72.0024 171.583 6.61056e-007 -5.43114e-006 3.49748 -153.165 76.3438 155.552 8.13384 25.2481 -3.48136 179.65 40.0556 -6.38785 4.54188e-006 -4.6773e-006 -1.92049 -9.01798 -76.976 -6.10112 6.26103e-006 -2.59136e-006 -3.11247 110.982 82.2799 -107.83 -9.03611 36.8826 4.0412 
43.3526 78.6538 4.22052 0.987899 1.68661 7.16119 -0.0319055 1.34543 0.397366 -0.0775592 6.69347 0.799494 -0.0874177 8.3385 0.802154 -16.2577 -12.1838 -8.02507 15.6515 -11.6869 -5.56833 60.2676 -7.71783 -4.83431 101.012 19.6175 28.6691 -2.09766e-005 -1.2729e-007 -8.7499e-007 2.40951 48.4994 -2.77549 -3.6371e-006 7.61885e-007 -3 8.02886 -4.95159 0.697758 -67.0918 -4.20751 3.19655 -101.205 12.0659 -18.8659 -1.0478e-005 1.76413e-006 4.33026e-007 1.54569 58.7798 -0.565955 1.57638e-006 2.10261e-007 3 -8.02951 -4.95156 -0.697709 -173.879 35.5936 -4.30761 180 7.01372e-015 178.327 -170.911 71.6064 171.964 6.61057e-007 -5.43114e-006 3.45655 -152.744 76.5227 155.084 8.1339 25.2488 -3.48149 179.652 39.7188 -6.3118 4.54188e-006 -4.6773e-006 -1.91213 -9.40083 -76.4233 -6.36083 6.26103e-006 -2.59136e-006 -3.06759 111.07 82.253 -107.787 -9.00989 36.5944 4.02448 
43.4249 78.8295 4.20947 1.00187 1.64323 7.22559 -0.0291412 1.33121 0.394584 -0.071798 6.66505 0.793479 -0.081569 8.31007 0.796026 -16.2855 -12.1585 -8.02859 15.631 -11.5675 -5.5978 60.0821 -7.76416 -4.85704 100.751 19.4649 28.8256 -2.09766e-005 -1.2729e-007 -8.7499e-007 2.5182 49.3171 -2.84706 -3.6371e-006 7.61885e-007 -3 8.02886 -4.95159 0.697758 -66.9936 -4.19826 3.185 -100.864 12.1937 -19.3489 -1.0478e-005 1.76413e-006 4.33026e-007 1.86973 60.4984 -0.854037 1.57638e-006 2.10261e-007 3 -8.02951 -4.95156 -0.697709 -174.07 35.3566 -4.14751 180 7.01376e-015 178.338 -171.359 71.1929 172.349 6.61057e-007 -5.43113e-006 3.41394 -152.293 76.7082 154.579 8.13395 25.2493 -3.48161 179.658 39.387 -6.23794 4.54188e-006 -4.6773e-006 -1.90348 -9.75022 -75.8644 -6.58758 6.26103e-006 -2.59135e-006 -3.02154 110.968 82.235 -107.555 -8.98576 36.3267 4.00931 
43.3802 79.0539 4.22026 1.01485 1.60335 7.29573 -0.0262121 1.31529 0.391477 -0.0656822 6.63322 0.786849 -0.0753575 8.27825 0.789277 -16.3096 -12.1302 -8.03514 15.6051 -11.4447 -5.63205 59.9012 -7.81268 -4.88148 100.483 19.3048 28.981 -2.09766e-005 -1.2729e-007 -8.7499e-007 2.63076 50.1303 -2.92228 -3.6371e-006 7.61885e-007 -3 8.02886 -4.95159 0.697758 -66.8882 -4.18867 3.17274 -100.516 12.3227 -19.8329 -1.0478e-005 1.76413e-006 4.33026e-007 2.20887 62.1481 -1.16148 1.57638e-006 2.10261e-007 3 -8.02951 -4.95156 -0.697709 -174.265 35.1154 -3.9817 180 7.0138e-015 178.349 -171.814 70.7622 172.735 6.61057e-007 -5.43113e-006 3.36975 -151.81 76.9003 154.035 8.134 25.2498 -3.48171 179.669 39.0619 -6.16847 4.54188e-006 -4.6773e-006 -1.89461 -10.0664 -75.3026 -6.78204 6.26103e-006 -2.59135e-006 -2.97455 110.652 82.2269 -107.11 -8.96417 36.0848 3.99601 
43.4267 79.2277 4.22979 1.02715 1.56684 7.37155 -0.0231864 1.29784 0.388059 -0.0593517 6.59835 0.779654 -0.068924 8.24338 0.781956 -16.3313 -12.1003 -8.04571 15.5747 -11.3176 -5.67182 59.7242 -7.86381 -4.90784 100.209 19.138 29.1347 -2.09766e-005 -1.2729e-007 -8.7499e-007 2.74621 50.9374 -3.00096 -3.6371e-006 7.61885e-007 -3 8.02886 -4.95159 0.697758 -66.7754 -4.17948 3.16012 -100.163 12.4533 -20.3137 -1.0478e-005 1.76413e-006 4.33027e-007 2.55744 63.7129 -1.48462 1.57638e-006 2.10261e-007 3 -8.02951 -4.95156 -0.697709 -174.464 34.8704 -3.81104 180 7.01383e-015 178.36 -172.275 70.3145 173.121 6.61057e-007 -5.43113e-006 3.32407 -151.292 77.0989 153.449 8.13404 25.2501 -3.48179 179.685 38.7452 -6.10551 4.54188e-006 -4.6773e-006 -1.88556 -10.3497 -74.7413 -6.94498 6.26103e-006 -2.59135e-006 -2.92683 110.095 82.2293 -106.425 -8.94555 35.8739 3.98487 
43.3916 79.4479 4.23138 1.03907 1.53353 7.45299 -0.0201325 1.27903 0.384342 -0.052946 6.56075 0.77194 -0.0624088 8.20578 0.774116 -16.3517 -12.0703 -8.0613 15.541 -11.1854 -5.7178 59.5503 -7.91796 -4.93632 99.9332 18.9657 29.2864 -2.09766e-005 -1.2729e-007 -8.7499e-007 2.86356 51.7368 -3.08288 -3.6371e-006 7.61885e-007 -3 8.02886 -4.95159 0.697758 -66.6546 -4.17145 3.1475 -99.8043 12.586 -20.7872 -1.0478e-005 1.76413e-006 4.33026e-007 2.90762 65.177 -1.81777 1.57638e-006 2.10261e-007 3 -8.02951 -4.95156 -0.697709 -174.666 34.6216 -3.63636 180 7.01387e-015 178.371 -172.739 69.8502 173.503 6.61057e-007 -5.43114e-006 3.277 -150.736 77.304 152.818 8.13407 25.2503 -3.48185 179.707 38.4384 -6.05117 4.54188e-006 -4.6773e-006 -1.87637 -10.6007 -74.1837 -7.07715 6.26103e-006 -2.59135e-006 -2.87859 109.266 82.2425 -105.472 -8.93034 35.6995 3.97618 
